<?xml version="1.0" standalone="no"?>
<!DOCTYPE svg PUBLIC "-//W3C//DTD SVG 20010904//EN"
 "http://www.w3.org/TR/2001/REC-SVG-20010904/DTD/svg10.dtd">
<svg version="1.0" xmlns="http://www.w3.org/2000/svg"
 width="24px" height="24px" viewBox="0 0 1920.000000 1080.000000"
 preserveAspectRatio="xMidYMid meet">

<g transform="translate(0.000000,1080.000000) scale(0.100000,-0.100000)"
fill="#000000" stroke="none">
<path d="M9425 5963 c-238 -51 -452 -231 -552 -468 -59 -138 -69 -363 -23
-510 98 -313 369 -533 680 -552 232 -14 435 60 607 221 257 240 308 637 122
954 -19 31 -75 98 -126 149 -80 80 -104 98 -195 142 -62 30 -134 56 -180 65
-95 20 -240 19 -333 -1z m320 -103 c134 -34 218 -83 315 -180 l85 -85 -278 -3
c-153 -1 -401 -1 -550 0 l-272 3 85 85 c66 67 102 94 165 125 152 74 302 93
450 55z m485 -438 c79 -239 27 -488 -140 -666 -118 -125 -236 -188 -402 -214
-32 -5 -56 -6 -54 -3 37 77 562 959 567 954 4 -5 17 -36 29 -71z m-965 -415
c147 -252 264 -461 261 -464 -14 -14 -146 21 -225 58 -101 49 -227 164 -284
261 -75 126 -108 287 -88 429 12 84 49 196 61 182 4 -4 128 -214 275 -466z
m812 466 c-11 -22 -472 -781 -482 -796 -11 -15 -43 33 -256 384 -134 221 -245
406 -247 411 -2 4 220 8 493 8 273 0 494 -3 492 -7z"/>
</g>
</svg>
