<svg xmlns="http://www.w3.org/2000/svg" xmlns:xlink="http://www.w3.org/1999/xlink" width="70" zoomAndPan="magnify" viewBox="0 0 375 374.999991" height="500" preserveAspectRatio="xMidYMid meet" version="1.0"><defs><g/></defs><g fill="#000000" fill-opacity="1"><g transform="translate(109.020516, 253.152336)"><g><path d="M 71.578125 0 C 52.171875 0 35.390625 -7.15625 21.234375 -21.46875 C 7.078125 -35.789062 0 -52.898438 0 -72.796875 C 0 -92.847656 7.113281 -109.988281 21.34375 -124.21875 C 35.582031 -138.457031 52.726562 -145.578125 72.78125 -145.578125 C 92.84375 -145.578125 109.988281 -138.421875 124.21875 -124.109375 C 138.457031 -109.796875 145.578125 -92.53125 145.578125 -72.3125 C 145.578125 -52.25 138.378906 -35.179688 123.984375 -21.109375 C 109.585938 -7.035156 92.117188 0 71.578125 0 Z M 24.75 -99 L 71.828125 -21.359375 L 118.890625 -99 Z M 67.703125 -9.953125 L 15.53125 -99 C 11.644531 -90.90625 9.703125 -82.171875 9.703125 -72.796875 C 9.703125 -56.296875 15.363281 -41.976562 26.6875 -29.84375 C 38.007812 -17.707031 51.679688 -11.078125 67.703125 -9.953125 Z M 129.328125 -100.9375 L 75.953125 -9.703125 C 92.773438 -10.835938 106.96875 -17.347656 118.53125 -29.234375 C 130.09375 -41.128906 135.875 -55.488281 135.875 -72.3125 C 135.875 -82.175781 133.691406 -91.71875 129.328125 -100.9375 Z M 20.859375 -108.453125 L 124.71875 -108.453125 C 118.894531 -116.867188 111.410156 -123.539062 102.265625 -128.46875 C 93.128906 -133.40625 83.300781 -135.875 72.78125 -135.875 C 62.269531 -135.875 52.445312 -133.40625 43.3125 -128.46875 C 34.175781 -123.539062 26.691406 -116.867188 20.859375 -108.453125 Z M 20.859375 -108.453125 "/></g></g></g></svg>